PathFileType	4	(X/Y/Z)
DataRate	CameraRate	NumFrames	NumMarkers	Units	OrigDataRate	OrigDataStartFrame	OrigNumFrames
120	120	4	142	mm	120	237	473	
Frame#	Time	 STRN			 T1			 T8			 T10			 T12			 C7			 CLAV			 LANK			 RANK			 LANI			 RANI			 LASI			 RASI			 LPSI			 RPSI			 LSHO			 RSHO			 LTOE			 RTOE			 RHEE			 LHEE			 LKNE			 RKNE			 LKNI			 RKNI			 RIWR			 LIWR			 RELB			 LELB			 RELBIN			 LELBIN			 LOWR			 ROWR			 RCLAV			 LCLAV			 RFHD			 LBHD			 LFHD			 RBHD			 LMT1			 LMT5			 RMT1			 RMT5			 Tracking_L5			 Tracking_L4			 Tracking_L3			 Tracking_L2			 Tracking_L1			 Tracking_T11			 Tracking_T9			 Tracking_T7			 Tracking_T6			 Tracking_T5			 Tracking_T4			 Tracking_T3			 Tracking_T2			 rthumb			 rindex			 rmiddle			 rring			 rpinky			 lthumb			 lindex			 lmiddle			 lring			 lpinky			 ROOT			 Spine1			 Spine2			 Spine3			 LHIPJ			 RHIPJ			 LKJC			 RKJC			 LAJC			 RAJC			 LFOOT			 RFOOT			 NECK			 LCOL			 RCOL			 HEAD			 LSHOULDER			 RSHOULDER			 LELC			 RELC			 LWRIST			 RWRIST			 left_index1			 left_index2			 left_index3			 left_middle1			 left_middle2			 left_middle3			 left_pinky1			 left_pinky2			 left_pinky3			 left_ring1			 left_ring2			 left_ring3			 left_thumb1			 left_thumb2			 left_thumb3			 right_index1			 right_index2			 right_index3			 right_middle1			 right_middle2			 right_middle3			 right_pinky1			 right_pinky2			 right_pinky3			 right_ring1			 right_ring2			 right_ring3			 right_thumb1			 right_thumb2			 right_thumb3			 MASI			 MPSI			 MHIPJ			 CENTER			 Virtual_LWRIST			 Virtual_RWRIST			 Virtual_LAJC			 Virtual_RAJC			 Virtual_LKJC			 Virtual_RKJC			 Virtual_LELC			 Virtual_RELC			 Virtual_Ground_RAJC			 Virtual_Ground_LAJC			 Virtual_Ground_RFOOT			 Virtual_Ground_LFOOT			 Virtual_Ground_RTOE			 Virtual_Ground_LTOE			 Virtual_Ground_RMT1			 Virtual_Ground_LMT1			 Virtual_Ground_RMT5			 Virtual_Ground_LMT5			 Virtual_Ground_RHEE			 Virtual_Ground_LHEE		
		X1	Y1	Z1	X2	Y2	Z2	X3	Y3	Z3	X4	Y4	Z4	X5	Y5	Z5	X6	Y6	Z6	X7	Y7	Z7	X8	Y8	Z8	X9	Y9	Z9	X10	Y10	Z10	X11	Y11	Z11	X12	Y12	Z12	X13	Y13	Z13	X14	Y14	Z14	X15	Y15	Z15	X16	Y16	Z16	X17	Y17	Z17	X18	Y18	Z18	X19	Y19	Z19	X20	Y20	Z20	X21	Y21	Z21	X22	Y22	Z22	X23	Y23	Z23	X24	Y24	Z24	X25	Y25	Z25	X26	Y26	Z26	X27	Y27	Z27	X28	Y28	Z28	X29	Y29	Z29	X30	Y30	Z30	X31	Y31	Z31	X32	Y32	Z32	X33	Y33	Z33	X34	Y34	Z34	X35	Y35	Z35	X36	Y36	Z36	X37	Y37	Z37	X38	Y38	Z38	X39	Y39	Z39	X40	Y40	Z40	X41	Y41	Z41	X42	Y42	Z42	X43	Y43	Z43	X44	Y44	Z44	X45	Y45	Z45	X46	Y46	Z46	X47	Y47	Z47	X48	Y48	Z48	X49	Y49	Z49	X50	Y50	Z50	X51	Y51	Z51	X52	Y52	Z52	X53	Y53	Z53	X54	Y54	Z54	X55	Y55	Z55	X56	Y56	Z56	X57	Y57	Z57	X58	Y58	Z58	X59	Y59	Z59	X60	Y60	Z60	X61	Y61	Z61	X62	Y62	Z62	X63	Y63	Z63	X64	Y64	Z64	X65	Y65	Z65	X66	Y66	Z66	X67	Y67	Z67	X68	Y68	Z68	X69	Y69	Z69	X70	Y70	Z70	X71	Y71	Z71	X72	Y72	Z72	X73	Y73	Z73	X74	Y74	Z74	X75	Y75	Z75	X76	Y76	Z76	X77	Y77	Z77	X78	Y78	Z78	X79	Y79	Z79	X80	Y80	Z80	X81	Y81	Z81	X82	Y82	Z82	X83	Y83	Z83	X84	Y84	Z84	X85	Y85	Z85	X86	Y86	Z86	X87	Y87	Z87	X88	Y88	Z88	X89	Y89	Z89	X90	Y90	Z90	X91	Y91	Z91	X92	Y92	Z92	X93	Y93	Z93	X94	Y94	Z94	X95	Y95	Z95	X96	Y96	Z96	X97	Y97	Z97	X98	Y98	Z98	X99	Y99	Z99	X100	Y100	Z100	X101	Y101	Z101	X102	Y102	Z102	X103	Y103	Z103	X104	Y104	Z104	X105	Y105	Z105	X106	Y106	Z106	X107	Y107	Z107	X108	Y108	Z108	X109	Y109	Z109	X110	Y110	Z110	X111	Y111	Z111	X112	Y112	Z112	X113	Y113	Z113	X114	Y114	Z114	X115	Y115	Z115	X116	Y116	Z116	X117	Y117	Z117	X118	Y118	Z118	X119	Y119	Z119	X120	Y120	Z120	X121	Y121	Z121	X122	Y122	Z122	X123	Y123	Z123	X124	Y124	Z124	X125	Y125	Z125	X126	Y126	Z126	X127	Y127	Z127	X128	Y128	Z128	X129	Y129	Z129	X130	Y130	Z130	X131	Y131	Z131	X132	Y132	Z132	X133	Y133	Z133	X134	Y134	Z134	X135	Y135	Z135	X136	Y136	Z136	X137	Y137	Z137	X138	Y138	Z138	X139	Y139	Z139	X140	Y140	Z140	X141	Y141	Z141	X142	Y142	Z142

237	1.9667	317.123860	-505.740762	1291.414499	332.693666	-288.469344	1555.667520	335.036278	-223.753542	1356.550694	334.881961	-230.217084	1305.584073	333.621830	-242.846236	1254.345775	333.586484	-305.653572	1572.786093	319.978237	-439.393610	1490.227342	459.404111	-256.798476	144.237310	189.201236	-255.221635	152.826697	403.095305	-264.581203	180.591613	246.467322	-276.936084	182.669431	448.571324	-439.615905	999.727011	185.606152	-415.233582	999.507785	396.719396	-223.066509	1088.862181	278.251767	-214.425549	1091.331363	456.450045	-358.433008	1534.953356	195.414409	-344.016135	1535.549641	362.465262	-364.973992	16.239552	242.111295	-379.148096	15.031127	258.332461	-191.695228	147.436887	414.542884	-179.522589	148.160487	502.055824	-379.629582	557.283342	130.922869	-380.278051	556.508124	392.416567	-387.065053	548.726618	242.283240	-406.796306	546.503901	-322.178036	-468.506992	1316.243529	949.036837	-414.079756	1190.906048	-108.916789	-321.236640	1311.524153	722.065508	-307.606041	1265.385628	-73.106408	-379.194498	1246.929407	675.936460	-361.871213	1204.164624	943.123400	-377.569973	1143.821001	-336.338669	-434.161186	1265.995026	246.291474	-409.902155	1506.078243	399.231434	-421.453178	1506.679773	270.174563	-478.598952	1752.172112	390.782088	-368.836910	1795.065641	371.992171	-492.825121	1750.778317	291.190654	-352.967352	1796.531796	387.561798	-335.593104	58.490545	447.837502	-304.775864	30.253557	227.488860	-347.529143	57.068318	166.760102	-304.022163	35.284966	335.007995	-236.669853	1127.479196	333.892137	-245.475903	1151.611447	333.372474	-252.528191	1179.892302	332.506001	-253.282785	1204.970479	333.200723	-249.162063	1229.206204	334.668159	-236.645445	1279.390335	335.240960	-226.075098	1331.767917	334.525466	-223.270983	1378.673315	334.054381	-227.401182	1418.288946	333.877057	-235.102743	1451.226234	332.611322	-249.007344	1494.977355	332.270205	-259.875208	1519.557118	332.184643	-272.713482	1538.432121	-437.574536	-559.148073	1307.620764	-479.754716	-538.143218	1299.007773	-487.489730	-523.939073	1279.904962	-473.539561	-512.504518	1264.406919	-462.653905	-493.386865	1247.558832	1075.525522	-469.821483	1155.284762	1100.909829	-449.257135	1134.483695	1102.073908	-434.994012	1116.856337	1085.602045	-426.227778	1109.568357	1069.143295	-405.812383	1099.656463	325.241178	-352.728665	1017.383337	332.115203	-316.870779	1144.746184	330.881625	-357.185185	1272.841692	327.863932	-366.888493	1325.131893	387.448639	-336.300969	936.116219	262.812853	-334.204018	927.316070	456.149250	-379.606575	562.358022	177.651003	-387.405396	559.191287	417.475730	-267.236829	153.710395	230.219468	-275.030792	160.029918	412.829489	-311.112732	20.126073	200.985268	-323.154658	24.151353	318.058819	-358.234435	1536.141157	401.376426	-366.320997	1441.189647	247.042313	-351.255268	1441.137314	324.827671	-414.059013	1612.306952	534.201026	-343.682826	1432.671309	122.709632	-339.444160	1441.229582	697.383404	-339.996070	1233.292103	-86.652786	-352.876127	1280.155301	948.089063	-398.807496	1160.325408	-335.383207	-457.815856	1282.188177	1053.065062	-417.790890	1179.058313	1085.139155	-425.034583	1174.826860	1094.436169	-436.899573	1157.053113	1061.476350	-396.413654	1167.945147	1090.866446	-401.486248	1156.366825	1099.276304	-415.140063	1137.591600	1038.539290	-368.464977	1133.411288	1054.488063	-373.000771	1121.494532	1061.590791	-385.817140	1108.201027	1050.678253	-378.900796	1149.805784	1077.020526	-387.947738	1139.712572	1084.298968	-404.186338	1122.760415	991.748393	-433.608592	1165.229797	1016.729951	-453.297079	1163.462043	1042.625546	-461.308569	1166.673422	-426.157504	-493.762761	1328.608751	-457.794994	-505.607247	1332.092047	-469.033569	-519.900501	1317.218184	-441.593915	-474.033386	1317.838788	-471.757144	-484.495014	1313.874364	-481.438011	-500.864983	1298.336267	-433.457464	-446.996242	1275.562525	-450.033575	-455.473810	1267.243981	-456.970006	-470.517099	1256.570935	-439.241141	-456.645250	1295.616388	-465.539068	-469.882041	1292.194009	-473.224550	-488.363534	1277.677536	-365.841717	-500.610173	1300.920248	-386.267930	-525.583267	1303.978801	-409.388036	-539.072454	1311.658382	317.088738	-427.424744	999.617398	337.485582	-218.746029	1090.096772	325.130746	-335.252494	931.716144	327.287160	-323.085386	1044.857085	946.080118	-395.824865	1167.363524	-329.258353	-451.334089	1291.119277	431.249708	-260.689840	162.414461	217.834279	-266.078860	167.748064	447.236195	-383.347318	553.004980	186.603054	-393.537179	551.506013	699.000984	-334.738627	1234.775126	-91.011599	-350.215569	1279.226780	217.834279	-711.902976	167.748064	431.249708	-711.902976	162.414461	200.985268	-711.902976	24.151353	412.829489	-711.902976	20.126073	242.111295	-711.902976	15.031127	362.465262	-711.902976	16.239552	227.488860	-711.902976	57.068318	387.561798	-711.902976	58.490545	166.760102	-711.902976	35.284966	447.837502	-711.902976	30.253557	258.332461	-711.902976	147.436887	414.542884	-711.902976	148.160487
238	1.9750	317.551494	-506.587327	1301.432371	333.216131	-288.572431	1564.606547	335.539967	-224.285558	1365.366817	335.419059	-230.861530	1314.320207	334.125161	-243.696839	1263.038754	334.171385	-305.888295	1581.864834	320.590496	-439.743161	1499.546289	467.550218	-261.125416	151.375055	183.092311	-259.496689	161.006272	410.961688	-268.446892	187.330246	240.665421	-281.440645	190.098763	448.897868	-441.208988	1008.388638	185.662299	-416.992694	1008.499980	396.750242	-224.828526	1097.568750	278.352082	-216.232017	1100.108504	456.369191	-358.050942	1544.668913	196.665004	-344.268858	1545.435905	369.328856	-368.922979	23.521241	232.971400	-384.296507	22.919651	252.599776	-196.417302	154.433966	423.424780	-183.709413	154.839694	504.798591	-378.213853	566.509008	129.534662	-381.576657	565.927207	395.199746	-386.320442	556.979418	240.642667	-408.697486	555.153430	-323.946178	-470.456600	1341.501832	956.426919	-415.185153	1217.556834	-111.328796	-323.079646	1327.767015	726.782322	-307.931453	1280.860424	-77.345178	-381.712139	1262.705684	682.823777	-363.093615	1218.810439	952.354670	-379.401624	1169.750452	-339.844346	-436.498344	1291.507721	247.133479	-410.160899	1515.584230	399.708271	-421.532422	1516.193390	271.272331	-479.415923	1760.710359	391.903400	-369.611442	1803.482175	373.079151	-493.565261	1759.071231	292.332947	-353.862464	1805.164337	394.860893	-339.697242	65.711021	455.536127	-309.664816	37.472364	219.344527	-352.439702	65.088034	158.565104	-308.501691	44.158574	335.158795	-238.430291	1136.175156	334.119409	-247.064054	1160.302758	333.696514	-253.890038	1188.589931	332.902998	-254.433632	1213.679910	333.659500	-250.152588	1237.911224	335.201979	-237.378344	1288.100719	335.766822	-226.652727	1340.551496	335.007817	-223.763630	1387.501001	334.480703	-227.816775	1427.119970	334.291726	-235.435203	1460.045695	333.019674	-249.183387	1503.764749	332.695663	-259.993762	1528.339267	332.647800	-272.793651	1547.245979	-439.781725	-560.976982	1337.479353	-482.101798	-540.031016	1330.246568	-490.459144	-525.932193	1311.356902	-477.057815	-514.568448	1295.297265	-466.809154	-495.562613	1277.987003	1084.670067	-470.572025	1188.024879	1110.781312	-450.226873	1168.016076	1112.600446	-436.181813	1150.223494	1096.377730	-427.609742	1142.144799	1080.191016	-407.410771	1131.196260	325.364977	-354.575217	1026.339650	332.328320	-318.661422	1153.681993	331.284642	-358.100265	1282.051444	328.391343	-367.612809	1334.383845	387.475282	-338.115335	945.004821	262.828797	-336.148828	936.327159	458.658636	-378.505081	571.384847	176.338449	-388.948798	568.454385	425.700366	-271.495223	160.802126	224.047884	-279.629946	167.836666	420.439363	-315.670878	27.339395	192.523971	-327.949345	32.540675	318.594486	-358.054340	1545.354486	401.912510	-366.469562	1450.431824	247.563526	-351.557285	1450.327158	325.588256	-414.744526	1620.857716	534.825087	-343.789816	1443.553805	123.184845	-340.402693	1452.236414	703.135371	-340.763450	1248.472571	-89.836642	-355.035633	1296.141148	956.652999	-400.352508	1186.713815	-338.294744	-459.988147	1307.839751	1060.864925	-418.372363	1210.088849	1093.130946	-425.463349	1207.306504	1103.235126	-437.518716	1190.110564	1069.605470	-397.100538	1199.027538	1099.484444	-402.143151	1188.761830	1108.754873	-416.007251	1170.554519	1047.966599	-369.799137	1163.163662	1064.427137	-374.398768	1151.990652	1072.157025	-387.356043	1139.192820	1059.471130	-379.919738	1180.200696	1086.266756	-388.935208	1171.348929	1094.345927	-405.365288	1154.953122	1000.277162	-434.790671	1193.942308	1025.428772	-454.336703	1193.505526	1051.214933	-462.130189	1197.911739	-427.399695	-495.526433	1357.683063	-458.910465	-507.295668	1362.364173	-470.699131	-521.647215	1347.980261	-443.181574	-475.826621	1347.369313	-473.484516	-486.255020	1344.547153	-483.743668	-502.689600	1329.454660	-436.526299	-449.028045	1304.684043	-453.404188	-457.519770	1297.011852	-460.743785	-472.606808	1286.675572	-441.601038	-458.560467	1324.983954	-468.026102	-471.768022	1322.579503	-476.257861	-490.312189	1308.447599	-368.128896	-502.628207	1327.882648	-388.471961	-527.548075	1331.806540	-411.322713	-540.955067	1340.383768	317.280084	-429.100841	1008.444309	337.551162	-220.530272	1098.838627	325.152040	-337.132081	940.665990	327.415623	-324.815556	1053.641468	954.390794	-397.293389	1193.653643	-331.895262	-453.477472	1316.504776	439.255953	-264.786154	169.352651	211.878866	-270.468667	175.552517	449.999169	-382.267147	561.744213	185.088664	-395.137072	560.540318	704.803050	-335.512534	1249.835432	-94.336987	-352.395892	1295.236349	211.878866	-711.902976	175.552517	439.255953	-711.902976	169.352651	192.523971	-711.902976	32.540675	420.439363	-711.902976	27.339395	232.971400	-711.902976	22.919651	369.328856	-711.902976	23.521241	219.344527	-711.902976	65.088034	394.860893	-711.902976	65.711021	158.565104	-711.902976	44.158574	455.536127	-711.902976	37.472364	252.599776	-711.902976	154.433966	423.424780	-711.902976	154.839694
239	1.9833	318.151712	-507.484853	1310.628653	333.810210	-288.681984	1572.738886	336.047441	-224.895149	1373.355269	335.907608	-231.591493	1322.229743	334.550560	-244.622245	1270.923257	334.809929	-306.117445	1590.150476	321.263403	-440.082371	1508.068085	475.479603	-264.419109	159.062773	177.111223	-263.129711	169.215113	418.359280	-271.458358	194.194883	235.124335	-285.343558	197.209865	449.238956	-442.741603	1016.415477	185.735852	-418.838382	1016.783118	396.702677	-226.443931	1105.509043	278.331488	-217.962310	1108.129263	456.327260	-357.641757	1553.560853	198.035002	-344.436228	1554.565310	378.916770	-372.790903	30.219944	221.182853	-389.775306	31.079741	247.213215	-200.721636	160.395771	431.526244	-186.922505	161.501378	507.121086	-378.455371	575.140595	128.187284	-383.548111	574.729979	397.578776	-387.047857	564.615607	239.055708	-411.103219	563.178658	-325.150341	-472.411156	1366.184115	963.290632	-416.217327	1243.931413	-113.536090	-324.956179	1343.552709	731.425226	-308.262736	1295.829296	-81.408769	-384.183347	1278.071523	689.697027	-364.190102	1232.867479	961.140454	-380.971044	1195.629716	-342.772752	-438.874781	1316.479325	248.030096	-410.383612	1524.333239	400.245994	-421.552211	1524.850845	272.357970	-480.111539	1768.523216	392.952353	-370.179087	1811.163783	374.168038	-494.148821	1766.693711	293.375939	-354.597390	1813.006163	403.740376	-343.367010	72.723895	464.978158	-313.573807	45.398448	209.511429	-357.355356	73.354930	148.670927	-312.626868	53.893063	335.201114	-240.110338	1144.101024	334.237486	-248.608604	1168.226719	333.917707	-255.245149	1196.527362	333.206713	-255.611956	1221.615314	334.025770	-251.195788	1245.835423	335.665971	-238.196239	1295.991540	336.267680	-227.314591	1348.504186	335.519671	-224.326283	1395.496964	334.970713	-228.288844	1435.111046	334.785283	-235.812262	1468.021989	333.525211	-249.382168	1511.717319	333.210945	-260.125041	1536.292672	333.195329	-272.883266	1555.238485	-441.342086	-562.583148	1367.080331	-483.769685	-541.638434	1361.241579	-492.731661	-527.649462	1342.542529	-479.905218	-516.423345	1325.920463	-470.282167	-497.575939	1308.134675	1093.090892	-470.996171	1220.401287	1119.907975	-450.741023	1201.330543	1122.414947	-436.830521	1183.456779	1106.458187	-428.426892	1174.606681	1090.532780	-408.395052	1162.674665	325.471073	-356.372654	1034.529686	332.488656	-320.376366	1161.845684	331.694186	-359.024793	1290.457129	328.958333	-368.294626	1342.841506	387.487888	-339.866251	953.132987	262.831300	-338.090569	944.559813	460.775405	-378.957272	579.781771	175.055504	-391.103834	577.022314	433.611065	-274.796456	168.043822	218.047723	-283.622265	175.374717	430.059880	-319.582701	34.728263	181.981444	-332.683235	41.487549	319.235414	-357.861519	1553.774118	402.524412	-366.587996	1458.854079	248.159915	-351.837158	1458.748937	326.344490	-415.341288	1628.667116	535.491288	-343.763888	1453.726530	123.779297	-341.233104	1462.640405	708.820879	-341.453612	1263.080955	-92.815071	-357.188046	1311.675668	964.728057	-401.730239	1212.936759	-340.616792	-462.188333	1332.949281	1067.976713	-418.744624	1240.891099	1100.380301	-425.624669	1239.551783	1111.288786	-437.776893	1222.924948	1077.030659	-397.520810	1229.990959	1107.352734	-402.445287	1221.053123	1117.483735	-416.422397	1203.399062	1056.744099	-370.740980	1192.962289	1073.695660	-375.330687	1182.544827	1082.051754	-388.358176	1170.220613	1067.585230	-380.604982	1210.575104	1094.794512	-389.510602	1202.960253	1103.676319	-406.044126	1187.092066	1008.244514	-435.771078	1222.362518	1033.527255	-455.134213	1223.193645	1059.156656	-462.692469	1228.768826	-427.932769	-497.055948	1386.308312	-459.286302	-508.682489	1392.235994	-471.643239	-523.098052	1378.403664	-444.022268	-477.377892	1376.438022	-474.441558	-487.722546	1374.813199	-485.302776	-504.231513	1360.231757	-438.862771	-450.914532	1333.338618	-456.039160	-459.404051	1326.357484	-463.802963	-474.540859	1316.411257	-443.214744	-460.281104	1353.882074	-469.752163	-473.415107	1352.552176	-478.558570	-492.033571	1338.871598	-369.825274	-504.578352	1354.395032	-390.088230	-529.399037	1359.251499	-412.649006	-542.664587	1368.765235	317.487404	-430.789992	1016.599298	337.517083	-222.203121	1106.819153	325.159594	-338.978410	948.846400	327.502243	-326.496556	1061.709225	962.215543	-398.594186	1219.780564	-333.961546	-455.642968	1341.331720	446.919441	-267.938733	176.628828	206.117779	-274.236634	183.212489	452.349931	-382.751614	569.878101	183.621496	-397.325665	568.954319	710.561126	-336.226419	1264.348388	-97.472429	-354.569763	1310.812116	206.117779	-711.902976	183.212489	446.919441	-711.902976	176.628828	181.981444	-711.902976	41.487549	430.059880	-711.902976	34.728263	221.182853	-711.902976	31.079741	378.916770	-711.902976	30.219944	209.511429	-711.902976	73.354930	403.740376	-711.902976	72.723895	148.670927	-711.902976	53.893063	464.978158	-711.902976	45.398448	247.213215	-711.902976	160.395771	431.526244	-711.902976	161.501378
240	1.9917	318.896055	-508.373439	1319.022059	334.450155	-288.820475	1580.031276	336.535573	-225.479767	1380.529761	336.353242	-232.293621	1329.308391	334.928185	-245.518520	1277.981400	335.497141	-306.353718	1597.581029	322.002411	-440.430313	1515.738845	483.251154	-266.123056	167.369068	170.743719	-266.784906	176.917493	425.324500	-274.076551	201.017559	229.250386	-289.117038	203.741372	449.566424	-444.176644	1023.837924	185.860232	-420.791954	1024.406552	396.618515	-227.862909	1112.636328	278.254509	-219.593748	1115.362883	456.293136	-357.246250	1561.602831	199.480921	-344.586521	1562.852621	393.245697	-375.593573	34.893159	208.277017	-395.876914	39.356891	241.280228	-205.021843	165.297091	437.770873	-189.283952	169.076324	509.159803	-380.143374	583.221793	126.617044	-385.714233	582.934856	399.777174	-389.646918	571.506262	237.282678	-413.504303	570.566952	-325.935096	-474.303454	1390.201092	969.568908	-417.218357	1269.713402	-115.726389	-326.680064	1358.969808	736.086130	-308.494031	1310.280800	-85.517175	-386.372030	1293.052197	696.601331	-365.160882	1246.455908	969.471037	-382.404417	1221.090078	-345.369905	-441.101491	1340.931177	248.961344	-410.632640	1532.273889	400.834769	-421.542436	1532.613516	273.458719	-480.623275	1775.699258	393.996567	-370.525569	1818.148136	375.282019	-494.551480	1773.698807	294.390321	-355.117410	1820.147038	415.598810	-345.880449	78.535743	477.165192	-314.561695	53.627674	198.856205	-362.703532	81.575461	137.895346	-317.201674	63.666053	335.204154	-241.650447	1151.227355	334.319830	-250.029802	1175.356507	334.104776	-256.505072	1203.670382	333.478540	-256.729245	1228.747129	334.355742	-252.195925	1252.946377	336.081147	-238.987952	1303.049684	336.736202	-227.948114	1355.630279	336.024374	-224.870801	1402.685165	335.473955	-228.763223	1442.294240	335.313380	-236.202180	1475.183010	334.081680	-249.599904	1518.843412	333.775938	-260.276705	1543.422699	333.791018	-272.997826	1562.406182	-442.280382	-564.000070	1396.363974	-484.774560	-543.002605	1392.118096	-494.389206	-529.092968	1373.685956	-482.217878	-518.010557	1356.496930	-473.291546	-499.310553	1338.236094	1100.497365	-471.646011	1252.314806	1128.070474	-451.472104	1234.299898	1131.351709	-437.669426	1216.418505	1115.716219	-429.371417	1206.793785	1100.160122	-409.439474	1193.901420	325.585812	-358.110189	1041.959405	332.655549	-321.953505	1169.227123	332.127213	-359.908819	1298.046231	329.563469	-368.886650	1350.489974	387.491643	-341.576159	960.483789	262.823611	-340.054572	952.029109	462.630540	-380.998462	587.535620	173.530161	-393.361986	584.899902	441.388309	-277.268350	175.340950	211.725950	-287.532687	182.329953	442.896843	-321.207285	41.705076	170.458108	-337.961078	50.468389	319.938004	-357.721835	1561.389685	403.187960	-366.682559	1466.457129	248.805746	-352.117985	1466.381311	327.116817	-415.814340	1635.801673	536.163926	-343.577713	1463.143229	124.466382	-341.956943	1472.263217	714.526355	-342.032611	1277.189851	-95.803417	-359.125793	1326.851845	972.272158	-403.006881	1238.648534	-342.561156	-464.276493	1357.466698	1074.264407	-419.314414	1271.250367	1106.725454	-426.051140	1271.391988	1118.408322	-438.280433	1255.358219	1083.696008	-398.133308	1260.589957	1114.403367	-402.983487	1253.033519	1125.362635	-417.049259	1235.954046	1064.941287	-371.738464	1222.492814	1082.354784	-376.328677	1212.867618	1091.302156	-389.411837	1201.027036	1075.040102	-381.413817	1240.643263	1102.596879	-390.249431	1234.303474	1112.240791	-406.863570	1218.973398	1015.480757	-436.766982	1250.249624	1040.787101	-456.003159	1252.346039	1066.179395	-463.396400	1259.102702	-427.751809	-498.435855	1414.586902	-458.881706	-509.891570	1421.870589	-471.853226	-524.341583	1408.650398	-444.154352	-478.752315	1405.257463	-474.655658	-488.977790	1404.948711	-486.171871	-505.532146	1390.932322	-440.662652	-452.583492	1361.812234	-458.144754	-461.043894	1355.596662	-466.370434	-476.210058	1346.075416	-444.205135	-461.801738	1382.577181	-470.826894	-474.831104	1382.421851	-480.261475	-493.497938	1369.234920	-371.033460	-506.406069	1380.366445	-391.178757	-531.109333	1386.210680	-413.382739	-544.218719	1396.727443	317.713328	-432.484299	1024.122238	337.436512	-223.728329	1113.999605	325.157627	-340.815365	956.256449	327.574920	-328.106314	1069.060922	969.519973	-399.811387	1245.401740	-335.652500	-457.702473	1365.566134	454.287827	-270.099804	184.193313	199.997053	-277.950972	190.329432	454.468489	-384.895146	577.364028	181.949861	-399.609268	576.750904	716.343731	-336.827457	1278.368354	-100.621782	-356.526047	1326.011002	199.997053	-711.902976	190.329432	454.287827	-711.902976	184.193313	170.458108	-711.902976	50.468389	442.896843	-711.902976	41.705076	208.277017	-711.902976	39.356891	393.245697	-711.902976	34.893159	198.856205	-711.902976	81.575461	415.598810	-711.902976	78.535743	137.895346	-711.902976	63.666053	477.165192	-711.902976	53.627674	241.280228	-711.902976	165.297091	437.770873	-711.902976	169.076324
